<?xml version="1.0" encoding="utf-8"?>
<!-- Generator: Adobe Illustrator 19.1.1, SVG Export Plug-In . SVG Version: 6.00 Build 0)  -->
<svg version="1.1" id="Layer_1" xmlns="http://www.w3.org/2000/svg" xmlns:xlink="http://www.w3.org/1999/xlink" x="0px" y="0px"
	 viewBox="-226 350.2 141.7 141.7" style="enable-background:new -226 350.2 141.7 141.7;" xml:space="preserve">
<style type="text/css">
	.st0{fill:#FFFFFF;}
</style>
<g>
	<path class="st0" d="M-128.8,394.8c2.7,2.7,2.7,6.7,0,9.2l-17.2,17.2l17.2,17.2c2.7,2.7,2.7,6.7,0,9.2c-1.3,1.3-3,1.9-4.6,1.9
		c-1.6,0-3.2-0.5-4.6-1.9l-17.2-17.3l-17.2,17.2c-1.3,1.3-3,1.9-4.6,1.9c-1.6,0-3.2-0.5-4.6-1.9c-2.7-2.7-2.7-6.7,0-9.2l17.2-17.2
		l-17.2-17.2c-2.7-2.7-2.7-6.7,0-9.2c2.7-2.7,6.7-2.7,9.2,0l17.1,17.2l17.2-17.2C-135.4,392.1-131.4,392.1-128.8,394.8z"/>
</g>
</svg>
